<svg xmlns="http://www.w3.org/2000/svg" xml:space="preserve" id="Layer_1" x="0" y="0" style="enable-background:new 0 0 586.2 162.2" version="1.1" viewBox="0 0 586.2 162.2"><style>.st0{fill:#fff}</style><g><g><path d="M335.3 71c-2.8-1.7-5.9-2.5-9.4-2.5-2.8 0-5.4.6-7.7 1.8-2.3 1.2-4.2 3-5.6 5.2h-.1v-6.6h-6.2v52.7h6.2V99.9h.1c1.4 2.2 3.3 3.9 5.5 5.1 2.3 1.2 4.9 1.8 7.8 1.8 3.4 0 6.5-.8 9.3-2.4 2.8-1.6 5-3.8 6.5-6.7 1.6-2.9 2.4-6.2 2.4-9.9 0-3.6-.8-7-2.3-9.9-1.6-2.9-3.8-5.3-6.5-6.9zm.9 23.7c-1.1 2-2.6 3.6-4.5 4.7-2 1.2-4.2 1.7-6.6 1.7s-4.5-.6-6.5-1.7-3.5-2.7-4.7-4.7c-1.1-2-1.7-4.3-1.7-6.9 0-2.6.5-4.9 1.6-7s2.6-3.8 4.5-5c2-1.2 4.2-1.8 6.6-1.8s4.5.6 6.5 1.7c2 1.2 3.5 2.8 4.7 4.9 1.2 2.1 1.7 4.5 1.7 7.2 0 2.6-.5 4.9-1.6 6.9z" class="st0"/></g><g><path d="M376.2 87c0 2.9-.5 5.4-1.5 7.5s-2.3 3.8-4 4.9c-1.7 1.1-3.6 1.7-5.6 1.7-3.1 0-5.4-.9-6.9-2.8-1.5-1.8-2.3-4.8-2.3-8.9V68.8h-6.2v22.3c0 5.2 1.2 9.2 3.7 11.7 2.5 2.6 5.9 3.9 10.4 3.9 2.5 0 4.9-.6 7-1.8 2.2-1.2 4-2.9 5.4-5.1h.1v6.5h6.2V68.8h-6.2V87h-.1z" class="st0"/></g><g><path d="M402.2 70.3c-2.1 1.3-3.8 3.1-5.2 5.4h-.1v-6.9h-6.2v37.5h6.2V88.2c0-3.8 1-7 3.1-9.4s4.8-3.6 8.3-3.6l2.5.2v-6.9c-.4-.1-.9-.1-1.5-.1-2.7 0-5 .7-7.1 1.9z" class="st0"/></g><g><path d="M583.5 77.4c-1.5-2.8-3.5-5-6.1-6.6s-5.6-2.4-8.9-2.4c-3.5 0-6.7.8-9.5 2.5-2.8 1.6-5 3.9-6.6 6.9-1.6 2.9-2.4 6.2-2.4 9.9s.8 7.1 2.4 10c1.6 2.9 3.9 5.2 6.7 6.8 2.9 1.6 6.1 2.4 9.8 2.4 6.7 0 11.8-2.3 15.5-7l-4.4-3.7c-2.7 3.3-6.3 5-10.9 5-3.5 0-6.5-1.1-8.8-3.2-2.3-2.1-3.7-4.9-4.1-8.5h29.3c0-.3 0-.6.1-1s.1-.9.1-1.5c0-3.6-.8-6.8-2.2-9.6zm-27.1 7c.6-3.2 1.9-5.7 4.1-7.5 2.2-1.8 4.8-2.8 7.8-2.8s5.5.9 7.5 2.8 3.2 4.4 3.6 7.5h-23z" class="st0"/></g><g><path d="M450.9 78c-1.6-3-3.7-5.3-6.5-7s-5.9-2.5-9.4-2.5c-2.8 0-5.4.6-7.7 1.8s-4.2 3-5.6 5.2h-.1v-6.6h-6.2v52.7h6.2V99.9h.1c1.4 2.2 3.3 3.9 5.5 5.1 2.3 1.2 4.9 1.8 7.8 1.8 3.4 0 6.5-.8 9.3-2.4 2.8-1.6 5-3.8 6.5-6.7 1.6-2.9 2.4-6.2 2.4-9.9 0-3.6-.8-6.9-2.3-9.8zm-5.6 16.7c-1.1 2-2.6 3.6-4.5 4.7-2 1.2-4.2 1.7-6.6 1.7-2.4 0-4.5-.6-6.5-1.7s-3.5-2.7-4.7-4.7c-1.1-2-1.7-4.3-1.7-6.9 0-2.6.5-4.9 1.6-7s2.6-3.8 4.5-5c2-1.2 4.2-1.8 6.6-1.8 2.4 0 4.5.6 6.5 1.7 2 1.2 3.5 2.8 4.7 4.9 1.2 2.1 1.7 4.5 1.7 7.2 0 2.6-.6 4.9-1.6 6.9z" class="st0"/></g><g><path d="M546.5 96c0-2.1-.4-3.7-1.3-5-.9-1.3-2-2.3-3.5-3.1s-3.6-1.7-6.4-2.8l-1.8-.7c-2.4-.9-4.1-1.7-5.3-2.6-1.2-.8-1.8-1.9-1.8-3.3s.6-2.5 1.7-3.3c1.2-.8 2.5-1.2 4-1.2 3.7 0 7.1 1.3 9.9 4l3.2-4.9c-3.8-3.1-8.1-4.6-12.9-4.6-2.3 0-4.4.4-6.3 1.3-1.9.9-3.3 2.1-4.4 3.6-1.1 1.5-1.6 3.3-1.6 5.2 0 3.1.9 5.5 2.8 7.1 1.9 1.6 4.7 3.1 8.4 4.4 2.8 1 4.6 1.7 5.5 2.1.9.4 1.7.9 2.4 1.6.7.7 1 1.5 1 2.5 0 1.5-.6 2.7-1.9 3.7-1.3 1-3 1.4-5.2 1.4-2.5 0-4.7-.4-6.5-1.2s-3.5-1.9-5-3.4l-3.2 4.8c4.1 3.5 8.9 5.3 14.6 5.3 4.4 0 7.7-1 10-3.1 2.5-2.1 3.6-4.7 3.6-7.8z" class="st0"/></g><g><path d="M502.116 15.76 511.164.083l1.992 1.15-9.048 15.677z" class="st0"/></g><g><path d="m414.54 56.536 1.415-1.686 6.74 5.657-1.413 1.685z" class="st0"/></g><g><path d="m554.876 55.516 11.257-9.452 1.48 1.762-11.258 9.452z" class="st0"/></g><g><path d="m430.852 159.605 9.425-7.902 1.414 1.685-9.426 7.903z" class="st0"/></g><g><path d="m522.3 111.4 5.2 8.9 1.9-1.1-3.9-6.8c-1.1-.3-2.2-.6-3.2-1z" class="st0"/></g><g><path d="m537.593 137.85 1.992-1.15 9.5 16.454-1.992 1.15z" class="st0"/></g><g><path d="m516.2 87.8-3.3 2.8-4.1-7 1.4-8 3.4 1.2c.1-.8.2-1.5.4-2.2l-3.4-1.2 3-16.7 29.6-10.8-.8-2.1L514 54.1l1.5-8.6-2.2-.4-1.7 9.9-16 5.8-8.5-14.7 11-19.1-1.9-1.1-10.4 18-14.2-24.5-1.9 1.1 14.8 25.7-8.5 14.7-16-5.8-5.5-31.1-2.2.4 5.3 29.8-15.8-5.8-.8 2.1 17 6.2 3 16.7-4.5 1.6c.4.7.7 1.4 1 2l3.9-1.4 1.4 8-3.2 5.6c-.1 1.6-.3 3.2-.6 4.7l6.5 5.5 1.4 8h-12.6v2.2h13l3 16.7-18.9 15.9 1.4 1.7 17.9-15 .8 4.7 2.2-.4-1.1-6 13-10.9 13 10.9-2.3 12.9 2.2.4 2-11.6 12.9 10.8 1.4-1.7-13.9-11.6 3-16.7h3.1v-2.2h-2.7l1.4-8 6.2-5.2 1.5 2.6 1.4-2.1-1.2-2 3.6-3c0-.7-.5-1.3-1-2zm-5-30.3-2.7 15.1-7.6-2.8-4.1-7 14.4-5.3zm-14.5 9.6-2.4.2-1.6-.6-1.8-1.9 3.8-1.4 2 3.7zm-10.8-18.8 7.6 13.2-7.6 2.8-7.6-2.8 7.6-13.2zm-8.8 15.2 3.8 1.4-1.6 1.8-.6.2h-3.6l2-3.4zm-16.5-6 14.4 5.2-4.1 7-7.6 2.8-2.7-15zm2.9 37.1-3-2.5 2-3.4 1.6 2.4-.6 3.5zm.8-15.9-.7-3.9 3.9-1.4-.8 3.6-2.4 1.7zm4.4 25.1 3.3 1 1.4 2.6h-4.2l-.5-3.6zm3.7 20.8-2.7-15.1h8.1l6.2 5.2-11.6 9.9zm13.5-11.3-3.1-2.6 3-.9 2.7 1.3-2.6 2.2zm13.4 11.3-11.7-9.8 6.2-5.2h8.1l-2.6 15zm3.1-17.3h-3.7l.7-2.4 1.3-1.1 2.4-.5-.7 4zm-16.6.3c-11 0-19.9-8.9-19.9-19.9s8.9-19.9 19.9-19.9 19.9 8.9 19.9 19.9c0 11-8.9 19.9-19.9 19.9zm19.6-30.1-1-1.8-.2-2.4 4 1.5-.7 4-2.1-1.3zm2.7 17.2-.7-2.6.3-1.7 1.5-1.8 2 3.4-3.1 2.7z" class="st0"/></g><g><path d="m439.479 124.128 5.548-9.614 1.993 1.15-5.55 9.614z" class="st0"/></g></g><g><g><g><path d="m430.82 15.863 1.479-1.762 12.179 10.22L443 26.085z" class="st0"/></g><g><path d="m544.966 111.498 1.414-1.686 7.51 6.296-1.414 1.686z" class="st0"/></g><g><path d="m450.536 161.74 2.501-14.181 2.167.382-2.501 14.181z" class="st0"/></g><g><path d="m519.458 30.884 9.579-8.03 1.413 1.685-9.579 8.031z" class="st0"/></g><g><path d="m523.507 61.828 3.05-5.283 1.992 1.15-3.05 5.283z" class="st0"/></g><g><path d="m500.9 105.5 7.6-2.8 2.2 12.7 2.2-.4-2.4-13.5 1.7-2.6-2.1.8-1.4-8 4.1-7 2.7 2.3c-.7-1.2-1.3-2.6-1.6-4.2-.3-1.1-.4-2.4-.4-3.7l-1.3 2.2-6.2-5.2-1.4-8h3v-2.2h-3.4l-3-16.7 11.3-9.4-1.4-1.7-10.3 8.6-.7-3.8-2.2.4.9 5.1-13 10.9-13-10.9 5.7-32.6-2.2-.4-5.5 31.3-4.6-3.9-1.4 1.7 5.6 4.7-3 16.7h-11.9v2.2H467l-1.4 8-6.6 5.6c.1.7.3 1.3.4 2 0 .1 0 .3.1.4.1.7.2 1.4.2 2.2l3.2 5.6-1.4 8-3.7-1.4c-.3.7-.6 1.4-1 2l4.3 1.6-5.3 30.1 2.2.4 5.2-29.7 7.6 2.8 4.1 7-12.3 4.5.8 2.1 12.7-4.6 8.5 14.7-7.5 13 1.9 1.1 6.8-11.8 16.6 28.7 1.9-1.1-17.2-29.9 8.5-14.7 35.3 12.8.8-2.1-34.9-12.7 4.1-7.2zm10.3-22.3-2.9 5.1-1.6-8.8 4.5 3.7zm-4.1 11.5 1 5.8-5.5 2 4.5-7.8zm-3.7-21-6.9-5.8h5.9l1 5.8zm-4.1-23.1 2.7 15.1h-8.1l-6.2-5.2 11.6-9.9zm-9 15.1h-9l4.5-3.8 4.5 3.8zm-17.9-15.1 11.7 9.8-6.2 5.2h-8.1l2.6-15zM469.3 68h5.9l-6.9 5.8 1-5.8zm-8.7 15.2 4.5-3.8-1.6 8.8-2.9-5zm3 17.3 1-5.8 4.5 7.8-5.5-2zm3.1-12.8c0-10.6 8.6-19.2 19.2-19.2s19.2 8.6 19.2 19.2-8.6 19.2-19.2 19.2c-10.7-.1-19.2-8.7-19.2-19.2zm7.4 19 8.4 3.1-5.5 2-2.9-5.1zm11.8 20.3-7.6-13.2 7.6-2.8 7.6 2.8-7.6 13.2zm8.8-15.2-5.5-2 8.4-3.1-2.9 5.1z" class="st0"/></g><g><path d="m442.276 56.085 1.992-1.15 3.1 5.369-1.992 1.15z" class="st0"/></g></g><g><path d="M.1 87.7c0-11.8 8-19.6 20-19.6 5.8 0 12.1 1.8 16.2 6.5l-7.8 7.7c-1.8-2.3-4.7-3.5-7.5-3.5-5.2 0-8.9 3.5-8.9 8.9 0 5.3 3.7 8.8 8.9 8.8 3.4 0 5.9-1.2 8-3.5l7.4 7.7c-3.4 3.9-8.9 6.5-16.8 6.5C8.4 107.1.1 99.2.1 87.7z" class="st0"/></g><g><path d="M38.9 87.6c0-11.5 8.2-19.6 20.4-19.6 11.9 0 20.3 7.9 20.3 19.6 0 11.5-8.5 19.5-20.3 19.5-12.2 0-20.4-8.1-20.4-19.5zm28.5 0c0-5.2-3.5-8.9-8.2-8.9-4.9 0-8.2 3.7-8.2 8.9 0 5 3.5 8.9 8.2 8.9 4.6 0 8.2-3.7 8.2-8.9z" class="st0"/></g><g><path d="M85.2 68.7h12v4.5h.1c2.9-3.4 6.7-5.2 10.6-5.2 4.8 0 8.7 1.7 10.9 5.6h.2c3-3.8 7.5-5.6 12.7-5.6 7.9 0 13.3 4.5 13.3 16.4v21.9h-12V87.1c0-4.9-1.3-8.5-5.5-8.5-3.5 0-6.3 2.8-6.3 8.8v18.9h-12V87.1c0-4.9-1.5-8.5-5.5-8.5-3.8 0-6.5 2.8-6.5 8.8v18.9h-12V68.7z" class="st0"/></g><g><path d="M151.6 68.7h12v4.5h.1c2.9-3.4 6.7-5.2 10.6-5.2 4.8 0 8.7 1.7 10.9 5.6h.2c3-3.8 7.5-5.6 12.7-5.6 7.9 0 13.3 4.5 13.3 16.4v21.9h-12V87.1c0-4.9-1.3-8.5-5.5-8.5-3.5 0-6.3 2.8-6.3 8.8v18.9h-12V87.1c0-4.9-1.5-8.5-5.5-8.5-3.8 0-6.5 2.8-6.5 8.8v18.9h-12V68.7z" class="st0"/></g><g><path d="M216 87.6c0-11.5 8.2-19.6 20.4-19.6 11.9 0 20.3 7.9 20.3 19.6 0 11.5-8.5 19.5-20.3 19.5-12.2 0-20.4-8.1-20.4-19.5zm28.6 0c0-5.2-3.5-8.9-8.2-8.9-4.9 0-8.2 3.7-8.2 8.9 0 5 3.5 8.9 8.2 8.9 4.5 0 8.2-3.7 8.2-8.9z" class="st0"/></g><g><path d="M261.9 68.7h12v4.4h.2c2.9-3.4 6.9-5.1 11.3-5.1 7.8 0 13.5 3.8 13.5 15.8v22.6h-12V86.8c0-6.2-2.1-8-6-8-4.2 0-6.9 2.8-6.9 8.7v18.9h-12V68.7h-.1z" class="st0"/></g></g></svg>