<?xml version="1.0" encoding="UTF-8" standalone="no" ?>
<!DOCTYPE svg PUBLIC "-//W3C//DTD SVG 1.1//EN" "http://www.w3.org/Graphics/SVG/1.1/DTD/svg11.dtd">
<svg xmlns="http://www.w3.org/2000/svg" xmlns:xlink="http://www.w3.org/1999/xlink" version="1.1" width="252" height="56" viewBox="0 0 252 56" xml:space="preserve">
<desc>Created with Fabric.js 5.2.4</desc>
<defs>
</defs>
<rect x="0" y="0" width="100%" height="100%" fill="transparent"></rect>
<g transform="matrix(Infinity NaN NaN Infinity 0 0)" id="5d13bddd-8fcc-4956-b134-3fc428708d74"  >
</g>
<g transform="matrix(1 0 0 1 126 28)" id="30ed2536-6672-47fd-a071-f90e7a229e98"  >
<rect style="stroke: none; stroke-width: 1; stroke-dasharray: none; stroke-linecap: butt; stroke-dashoffset: 0; stroke-linejoin: miter; stroke-miterlimit: 4; fill: rgb(255,255,255); fill-rule: nonzero; opacity: 1; visibility: hidden;" vector-effect="non-scaling-stroke"  x="-126" y="-28" rx="0" ry="0" width="252" height="56" />
</g>
<g transform="matrix(0.16 0 0 0.16 126 28)"  >
<g style="" vector-effect="non-scaling-stroke"   >
		<g transform="matrix(1 0 0 1 0.06 0)"  >
<rect style="stroke: none; stroke-width: 1; stroke-dasharray: none; stroke-linecap: butt; stroke-dashoffset: 0; stroke-linejoin: miter; stroke-miterlimit: 4; fill: rgb(255,255,255); fill-rule: nonzero; opacity: 1; visibility: hidden;" vector-effect="non-scaling-stroke"  x="-540" y="-540" rx="0" ry="0" width="1080" height="1080" />
</g>
		<g transform="matrix(1.49 0 0 1.49 -53.73 0)"  >
<path style="stroke: none; stroke-width: 1; stroke-dasharray: none; stroke-linecap: butt; stroke-dashoffset: 0; stroke-linejoin: miter; stroke-miterlimit: 4; fill: rgb(255,255,255); fill-rule: nonzero; opacity: 1;" vector-effect="non-scaling-stroke"  transform=" translate(-327.4, -40)" d="M 301.453 0 L 301.453 80 L 353.346 80 L 353.346 66 L 316.622 66 L 316.622 46 L 350.152 46 L 350.152 32.4 L 316.622 32.4 L 316.622 14 L 353.346 14 L 353.346 0 L 301.453 0 Z" stroke-linecap="round" />
</g>
		<g transform="matrix(1.49 0 0 1.49 -182.77 0)"  >
<path style="stroke: none; stroke-width: 1; stroke-dasharray: none; stroke-linecap: butt; stroke-dashoffset: 0; stroke-linejoin: miter; stroke-miterlimit: 4; fill: rgb(255,255,255); fill-rule: nonzero; opacity: 1;" vector-effect="non-scaling-stroke"  transform=" translate(-240.79, -40)" d="M 238.397 12.9177 L 227.22 12.9177 L 227.22 39.8776 L 238.397 39.8776 C 247.142 39.8776 253.566 35.6376 253.566 26.3953 C 253.566 16.8 247.142 12.9177 238.397 12.9177 Z M 239.196 52.8 L 227.22 52.8 L 227.22 80 L 212.052 80 L 212.052 0 L 239.196 0 C 256.219 0 269.533 7.72706 269.533 26.4 C 269.533 44.8 256.121 52.8 239.196 52.8 Z" stroke-linecap="round" />
</g>
		<g transform="matrix(1.49 0 0 1.49 220.47 0)"  >
<path style="stroke: none; stroke-width: 1; stroke-dasharray: none; stroke-linecap: butt; stroke-dashoffset: 0; stroke-linejoin: miter; stroke-miterlimit: 4; fill: rgb(255,255,255); fill-rule: nonzero; opacity: 1;" vector-effect="non-scaling-stroke"  transform=" translate(-511.42, -40)" d="M 485.079 0 L 485.079 14 L 503.84 14 L 503.84 66 L 485.079 66 L 485.079 80 L 537.77 80 L 537.77 66 L 519.009 66 L 519.009 14 L 537.77 14 L 537.77 0 L 485.079 0 Z" stroke-linecap="round" />
</g>
		<g transform="matrix(1.49 0 0 1.49 87.57 0)"  >
<path style="stroke: none; stroke-width: 1; stroke-dasharray: none; stroke-linecap: butt; stroke-dashoffset: 0; stroke-linejoin: miter; stroke-miterlimit: 4; fill: rgb(255,255,255); fill-rule: nonzero; opacity: 1;" vector-effect="non-scaling-stroke"  transform=" translate(-422.23, -40)" d="M 434.191 24.8 C 434.191 34.4377 428.602 37.4777 419.022 37.4777 L 406.248 37.4777 L 406.248 12.9177 L 419.022 12.9177 C 429.419 12.9224 434.191 16.8 434.191 24.8 Z M 450.158 24.8 C 450.158 6.12706 437.384 0 420.619 0 L 391.08 0 L 391.08 80 L 406.248 80 L 406.248 50.4 L 419.022 50.4 C 419.722 50.4 420.417 50.3859 421.107 50.3624 L 436.562 80 L 453.37 80 L 436.224 47.1906 C 444.565 43.4777 450.158 36.3435 450.158 24.8 Z" stroke-linecap="round" />
</g>
		<g transform="matrix(1.49 0 0 1.49 358.89 0)"  >
<path style="stroke: none; stroke-width: 1; stroke-dasharray: none; stroke-linecap: butt; stroke-dashoffset: 0; stroke-linejoin: miter; stroke-miterlimit: 4; fill: rgb(255,255,255); fill-rule: nonzero; opacity: 1;" vector-effect="non-scaling-stroke"  transform=" translate(-604.32, -40)" d="M 604.324 14.1929 L 615.238 49.4777 L 593.406 49.4777 L 604.324 14.1929 Z M 594.345 0 L 567.999 80 L 583.966 80 L 589.409 62.4 L 619.235 62.4 L 624.678 80 L 640.645 80 L 614.299 0 L 594.345 0 Z" stroke-linecap="round" />
</g>
		<g transform="matrix(1.49 0 0 1.49 502.79 0)"  >
<path style="stroke: none; stroke-width: 1; stroke-dasharray: none; stroke-linecap: butt; stroke-dashoffset: 0; stroke-linejoin: miter; stroke-miterlimit: 4; fill: rgb(255,255,255); fill-rule: nonzero; opacity: 1;" vector-effect="non-scaling-stroke"  transform=" translate(-700.9, -40)" d="M 674.889 0 L 674.889 80 L 726.914 80 L 726.914 66 L 690.058 66 L 690.058 0 L 674.889 0 Z" stroke-linecap="round" />
</g>
		<g transform="matrix(1.49 0 0 1.49 -343.75 0)"  >
<path style="stroke: none; stroke-width: 1; stroke-dasharray: none; stroke-linecap: butt; stroke-dashoffset: 0; stroke-linejoin: miter; stroke-miterlimit: 4; fill: rgb(255,255,255); fill-rule: nonzero; opacity: 1;" vector-effect="non-scaling-stroke"  transform=" translate(-132.75, -40)" d="M 151.908 0 L 132.747 47.04 L 113.587 0 L 92.0312 0 L 92.0312 80 L 106.402 80 L 106.402 20.1882 L 124.764 62.4 L 140.731 62.4 L 159.093 20.1882 L 159.093 80 L 173.463 80 L 173.463 0 L 151.908 0 Z" stroke-linecap="round" />
</g>
		<g transform="matrix(1.49 0 0 1.49 -502.3 0)"  >
<path style="stroke: none; stroke-width: 1; stroke-dasharray: none; stroke-linecap: butt; stroke-dashoffset: 0; stroke-linejoin: miter; stroke-miterlimit: 4; fill: rgb(255,255,255); fill-rule: nonzero; opacity: 1;" vector-effect="non-scaling-stroke"  transform=" translate(-26.35, -40)" d="M 0 0 L 0 14 L 18.7613 14 L 18.7613 66 L 0 66 L 0 80 L 52.6912 80 L 52.6912 66 L 33.93 66 L 33.93 14 L 52.6912 14 L 52.6912 0 L 0 0 Z" stroke-linecap="round" />
</g>
</g>
</g>
</svg>